<?xml version="1.0" encoding="UTF-8"?>
<!-- Generated by Pixelmator Pro 3.0.1 -->
<svg width="32" height="32" viewBox="0 0 32 32" xmlns="http://www.w3.org/2000/svg" xmlns:xlink="http://www.w3.org/1999/xlink">
    <path id="bolt" fill="#84cc16" fill-rule="evenodd" stroke="none" d="M 18.615 5.594999 C 18.9163 5.762703 19.064425 6.114241 18.974001 6.447001 L 16.982 13.75 L 24.25 13.75 C 24.548704 13.750019 24.81892 13.927286 24.937893 14.201273 C 25.056868 14.475262 25.001915 14.793728 24.798 15.011999 L 14.298 26.261999 C 14.062645 26.514709 13.685154 26.574051 13.383615 26.405739 C 13.082077 26.237429 12.934441 25.884974 13.026 25.552 L 15.018 18.25 L 7.75 18.25 C 7.451296 18.249981 7.18108 18.072712 7.062107 17.798725 C 6.943132 17.524738 6.998085 17.206272 7.202 16.987999 L 17.702 5.738001 C 17.937334 5.486229 18.313957 5.42724 18.615 5.594999 Z"/>
</svg>
